<svg xmlns="http://www.w3.org/2000/svg" width="220.689" height="300"><style id="style1" type="text/css">.st0{fill:#0058a3}.st1{fill:#fdce07}.st3{fill-rule:evenodd;clip-rule:evenodd;fill:#0058a3}</style><g id="g29" transform="translate(-105.763 -66.129)scale(.43221)"><path id="path1" d="M680.5 411.3c-46.2-46.2-110-74.8-180.5-74.8s-134.3 28.6-180.5 74.8-74.8 110-74.8 180.5 28.6 134.3 74.8 180.5 110 74.8 180.5 74.8 134.3-28.6 180.5-74.8 74.8-110 74.8-180.5c-.1-70.5-28.6-134.3-74.8-180.5" class="st0" style="fill:#22558c"/><path id="path2" d="M500 345.9c33.1 0 64.8 6.6 93.9 18.7 30.2 12.5 57.3 30.8 79.9 53.3 22.6 22.6 40.8 49.7 53.3 79.9 12 29.1 18.7 60.8 18.7 93.9s-6.6 64.8-18.7 93.9c-12.5 30.2-30.8 57.3-53.3 79.9-22.6 22.6-49.7 40.8-79.9 53.3-29.1 12-60.8 18.7-93.9 18.7s-64.9-6.6-93.9-18.7c-30.2-12.5-57.3-30.8-79.9-53.3-22.6-22.6-40.8-49.7-53.3-79.9-12-29.1-18.7-60.8-18.7-93.9s6.6-64.9 18.7-93.9c12.5-30.2 30.8-57.3 53.3-79.9 22.6-22.6 49.7-40.8 79.9-53.3 29-12 60.8-18.7 93.9-18.7" class="st1" style="display:inline;fill:#fed32c"/><path id="path3" d="M706.1 506.5c-11.3-27.3-27.9-51.9-48.4-72.4s-45.1-37.1-72.4-48.4c-26.3-10.9-55.1-16.9-85.2-16.9-30.2 0-59 6-85.2 16.9-27.3 11.3-51.9 27.9-72.4 48.4-20.6 20.5-37.1 45.1-48.4 72.4-11.1 26.3-17.1 55.1-17.1 85.3s6 59 16.9 85.2c11.3 27.3 27.9 51.9 48.4 72.4 20.6 20.5 45.1 37.1 72.4 48.4 26.3 10.9 55.1 16.9 85.2 16.9 30.2 0 59-6 85.2-16.9 27.3-11.3 51.9-27.9 72.4-48.4 20.5-20.6 37.1-45.1 48.4-72.4 10.9-26.3 16.9-55.1 16.9-85.2.2-30.2-5.8-59-16.7-85.3" class="st0" style="fill:#22558c"/><circle id="ellipse3" cx="500" cy="591.8" r="151" style="fill-rule:evenodd;clip-rule:evenodd;display:inline;fill:#fed32c" transform="rotate(-45.001 499.998 591.778)"/><path id="path4" d="m374.9 525.6 9.1 7.5 4.8-8c1 8.4 3.6 14 6.6 18.5 3.9 5.9 8.8 7.9 10.7 14.9.7 2.6 5 8.1 9.9 12.6 6.2 5.6 10.5 8 13.8 10.4v8.4c-3.1 4.1-6.4 8.9-1.9 12.8 3.3 2.9 5 3.1 10.3 4.3v7.4c3 2.6 3.8 4.1 5.6 8.5 1.6 3.8 3.1 7.6 4.3 12.3 4.4 1.3 8.1 3.1 12 7v19.7l5.7 3.1c.4 10.4 4.7 11.8 7.1 17.7 5.2-1.2 10.5-1.9 15.7-1.8v-4.3c5.2-.2 6.9-1.1 9.8-2.1 7.8-2.6 8.4-4.8 13-7.3 4.4-2.5 10.2-3.7 15.6-6.6 4-2.1 10.8-6.3 15.6-9.3 3.5-2.2 6.4-3.7 7.7-6.8.5-1.3.5-2.8.5-5 4.5-.1 7.9-.6 10.8-2.6 2.6-1.8 4.1-2.1 7.4-3.1v-6h5.1c1.2-3.5 2.1-5.4 4.6-6.8 1.3-.8 2.6-1.4 4.1-2 3.3-1.4 2.4-6.9 7.8-7.1L593 592l13.5-2.6v-20c-3.4-1.9-4.2-4.3-7.9-5.6-4.3-1.4-9.8-2.3-15.1-3.2-7.5-1.3-8.6-4.8-8.8-8.1-.1-1.7-.4-3.8-2.1-4.9-1.7-1-1.7-.8-3.4-1.9-3.3-2-4.7 1-8.5 3.5-2.5 1.7.2 5.3-2.4 8.4-2.8 3.2-16.3 3.2-20.2 3.9-1.9-2.9-2.2-4.1-3.1-7.4-.8-3.1-.2-5.1-5.2-5.1-2.6 0-3.9.5-5.6 1.7 0-4.5-.1-8.2-4.6-13.5-1-1.2-5.2-4.5-6.1-5.8-1.8-2.5-1.8-3.1-2.7-4.9-.5-.8-1.6-2.1-3.3-2.1-1.1 0-1.4-1.4-1.6-3.2-.3-3.9-3.1-4.7-4.7-7.8l7.4-.5-.1-7.5 12.3 1.3c.5 5.5 2 8.9 4.2 12.6 3.1 5.1 4.6 2.9 6.8 4.5 1.5 1.1 2.1 3.2 3.7 4.2 1.2.7 3.9.6 5.2 1.2 1.7.8 2.5 2.9 4.2 3.5 6.1 2.3 12.2 2.2 18.6 2.2 3.8 0 7.4-5.1 11.1-4.1 4.3 1.2 3.9 3.8 5.8 6 1 1.2 2.1 2.6 3.4 3.4 2 1.2 4.9 1.8 8.4 1.8 4.9 0 6.8-2.6 14.2-2.8 1.3-2.7 2.1-9.3 2.4-12.9 11.3 23.3 14.2 41.5 13.9 61.7-.4 25.7-7 49-20 69.5-13.3 21.1-33.3 39.2-60.1 51.6v-18.6c-2.5-3.8-2.9-4.2-20-2.3-4.8.5-9.7 1.7-13.3 3.6-5.1 2.6-8.6 6-15.6 6-3.3 0-8.8 6.2-16.7 5v-9.7c-4.2-.8-9-.7-13.7-3.8l1.6-9.8c-5.4-2.9-8.4-4.7-11.2-14H449c-4-3.2-10.5-6.1-14.4-10-.5-.5-3.6-4.7-4.7-6.3l-.5-16.7c-3.7-2.8-10.5-4.8-15.3-12.3-2.6-4.1-2.7-11.5-3.4-16-.8-4.9-4.7-15.8-7.7-16.7-2.2-.6-3.8-2.2-5.3-4.1-2-2.5-3-3.6-3.9-5l-1.9-21.7-10.1-6.9 1.9-9.7z" class="st3" style="display:inline;fill:#22558c"/><g id="g28"><path id="path5" d="M462.8 524.4c-4.2.1-7.7-.6-10.8-1.9l-12 8.4c-5.5 3.9-11.1-.3-11.5-11.1-3.8 8.7-1.5 12.8 1.6 15.5 3 2.7 9.2 5.6 16.9.2l68.3 97.3 25.5-18c-4.3-.1-8.1-.5-11-1.8l-12.6 8.9-7.5-10.7c7-4.5 9.2-13.7 4.2-21l-18.4-26.1 6.7-4.7c-4.5.5-8.2-.1-11.2-1.7l-12.6 8.9-25-35.6zm20.1 48.6 6.3-4.4 18.6 26.4c3.2 4.6.7 7.7-2.5 9.7z" class="st3" style="display:inline;fill:#22558c"/><path id="path6" d="M548 599.5c2.7 0 4.8 2.1 4.8 4.8 0 2.6-2.1 4.8-4.8 4.8-2.6 0-4.8-2.1-4.8-4.8s2.2-4.8 4.8-4.8" class="st3" style="display:inline;fill:#22558c"/></g><path id="path7" d="M624.3 267.6c13.8-18.3 8.1-37.2.6-47.4-8.1-11-29.9-21.8-47.7-16-2.4-3.4-6.7-2.8-8.6.7-6.5-11-18.4-16.2-32.3-16-8.1.1-17.2 2.1-27.5 6-1.5-3.2-3.5-7.1-6.3-12.1l5.7-11.5.6-1.2-.6-1.2-5.9-11.3-2.3-4.6-2.4 4.6-5.9 11.3-.6 1.2.6 1.2 5.7 11.5c-2.8 5.1-4.8 8.9-6.3 12.1-10.3-3.9-19.4-5.9-27.5-6-13.9-.1-25.8 5.1-32.3 16-1.9-3.5-6.1-4.1-8.6-.7-17.8-5.8-39.6 5-47.7 16-7.4 10.2-13.1 29.1.7 47.3h-.1c-3.2 2.2-4.2 4.7-6.3 7.7 4.2-.4 8.1-.9 11.9 1.5 2 1.3 3 3 4.6 5.6-3 2.3-2.7 12.6 6.3 10.2 2.9 3.7 5.9 6.3 9 8.3 2.9 1.9 6.1 2.8 8.8 3-.6.3-1.1.7-1.5 1.3-.4.7-.6 1.6-.4 2.5s.8 1.6 1.5 2.1c.7.4 1.6.6 2.5.4.6-.1 1.2-.3 1.7-.4l1.2 2.7-6.1 6.7 10.3 3 .7 1.6c-.2.1-.4.2-.5.4-.5.4-.9.8-1.3 1.2-.6.8-.9 1.8-.7 2.7 0 .2.1.5.2.7s.2.3.3.5c1.3 1.7 3.3 1.4 6.1.9.6-.1 1.2-.2 1.9-.3 2.7-.4 5.7-.8 8.1-1.2 2.8-.4 5.3-.8 6.1-.9 7.2-1.2 16.9-2.1 26.9-2.7 11.3-.7 23.3-1.1 33-1.1s21.6.4 33 1.1c10.1.6 19.7 1.6 26.9 2.7.8.1 3.3.5 6.1.9 2.4.4 5.4.8 8.1 1.2.7.1 1.3.2 1.9.3 2.8.5 4.8.8 6.1-.9.1-.2.2-.3.3-.5s.2-.5.2-.7c.2-.9-.1-1.9-.7-2.7-.3-.4-.8-.8-1.3-1.2-.2-.1-.3-.2-.5-.4l.7-1.6 10.3-3-6.1-6.7 1.2-2.7c.6.1 1.1.3 1.7.4.9.2 1.8.1 2.5-.4.7-.4 1.3-1.2 1.5-2.1s.1-1.8-.4-2.5c-.3-.6-.8-1-1.5-1.3 2.7-.2 5.9-1.1 8.8-3 3-1.9 6.1-4.5 9-8.3 9 2.4 9.3-7.9 6.3-10.2 1.6-2.7 2.6-4.4 4.6-5.6 3.8-2.4 7.7-1.9 11.9-1.5-1.9-2.9-3-5.4-6.2-7.6m-12.7-50.1c7.7 6.2 14.5 20.3 3.5 35.6l3.4 13.7c-1 .4-1.9 1-2.6 1.6-.3-1.6-.9-3.1-1.6-4.2-3.6 2.4-5.3 4.3-7.6 9.9-.6-.7-1.2-1.3-1.9-1.8-1.5-1-3.7-1.2-5.4-1.1-2.4.1-3.1-2.3-3.7-4.2-2.1.8-2.2 3.3-1.2 5.9-2.4 1-5.4 2.4-7.7 3.6l2.2 2.1c1.6 1.9 3.9 3.6 6 5.3-2.1.9-2.4.2-4.6-.1-.5 3.1 4 6.3 9.6 5.2-.9 1.2-1.6 2.4-2.8 3.3-2.9 2.4-5.9 4-8.4 3.9-2.2 0-3.7-2.2-4.8-4.1 1.2-.3 2.3-.9 3.1-1.8 1.1-1.2 1.7-2.8 1.7-4.6s-.7-3.4-1.7-4.5c-1.1-1.2-2.7-2-4.5-2s-3.3.8-4.5 2c-1.1 1.2-1.7 2.8-1.7 4.5 0 1.3.4 2.6 1 3.6-2.3 1.6-5.1 3.4-7.7 3.4-2.4 0-4.8-2.2-6.1-4.1-1.4-2-2.2-4.9-2.1-7.9 0-.4 0-.8.1-1.2.4 1.2 3.1 1.1 4.7 1.1 3.6 0 4.6.9 6.2 5.2 1.9-2.8 1.7-6.2.4-9 5.1.4 6.9-1.2 9.9-3.3-4.6-1.3-5.5-4.3-8.4-6.7 1.2-1.7 1.9-3.4 2.2-5-2.5.2-5 .5-7.5.7.6-4.4 2.9-6 6.5-8.3-3-1.7-5.5-2.3-9-.3-.3-3.1-1.4-5.9-2.8-8.5 6.4-9.2 9.9-18.3 8.7-29.7 18.3-7.3 32.1-3.9 39.1 1.8M500 306.1h8.5c1.1 0 2 .9 2 2s-.9 2-2 2h-17c-1.1 0-2-.9-2-2s.9-2 2-2zm-19.7 2.1c0 2.2-1.6 3.9-3.6 3.9s-3.6-1.8-3.6-3.9c0-2.2 1.6-3.9 3.6-3.9s3.6 1.7 3.6 3.9m-14.2 1.3c.2 1.1-.6 2.1-1.7 2.3l-13.4 2c-1.1.2-2.1-.6-2.3-1.7s.6-2.1 1.7-2.3l13.4-2c1.1-.1 2.1.6 2.3 1.7m-25.4 3.6c0 2.2-1.6 3.9-3.6 3.9s-3.6-1.8-3.6-3.9c0-2.2 1.6-3.9 3.6-3.9s3.6 1.7 3.6 3.9m79-4.9c0-2.2 1.6-3.9 3.6-3.9s3.6 1.8 3.6 3.9c0 2.2-1.6 3.9-3.6 3.9s-3.6-1.7-3.6-3.9m14.2 1.3c.2-1.1 1.2-1.9 2.3-1.7l13.4 2c1.1.2 1.9 1.2 1.7 2.3s-1.2 1.9-2.3 1.7l-13.4-2c-1.1-.2-1.8-1.2-1.7-2.3m25.4 3.6c0-2.2 1.6-3.9 3.6-3.9s3.6 1.8 3.6 3.9c0 2.2-1.6 3.9-3.6 3.9-1.9 0-3.6-1.7-3.6-3.9m-70.4-112c-1.1 4-1.3 7.8-1.2 13.2v1c.1 5.8.2 11.5-2.9 15.4l-1.1 1.3.9 1.4 5.7 9.4c-1.4-.2-3.1.2-5.2 1.3 3.7 1.4.8 4.2.8 6.2-4.5.1-6.9.3-10.2-1.2-.1 3.9.1 5.5 2.3 8.8.2.4.5.7.8 1.1-3.4 2.2-3.1 3.4-7.2 4.3 1 3.4 2.5 6 7.6 6.5-1 2.3-1.3 4.8-1.2 7.4 2.7-.7 3.4-3.5 5.2-4.2 4-1.6 8-.3 11.9-1.6 1.8 7.9-5.3 15.7-11 15.8-3.3.1-7.8-3.1-10.9-7.1.8-1.1 1.4-2.5 1.4-4.1 0-1.8-.7-3.4-1.7-4.5-1.1-1.2-2.7-2-4.5-2s-3.3.8-4.5 2c-1.1 1.2-1.7 2.8-1.7 4.5 0 1.8.7 3.4 1.7 4.6.7.7 1.5 1.3 2.4 1.6-2 2.6-3.1 3.7-5.1 4.9s-4.1 1.8-5.7 1.7c-2.4 0-5.1-1.5-7.2-4-1.3-1.6-2.6-3.9-3-6.8 1.7 0 3.6-.2 5.2-.4 4.2-.6 4.8-1.5 8.8 1.5-.3-3-.3-5.3-1.9-7.3 2-.3 4.2-1 5.9-3.5l2.3-3.6c-1.5-.4-2.8-.1-4.2-.1-.8-.2-1.6-.8-2.5-1.2-1-.5-1.9-1.2-3.1-1.6 1-2.2 1.2-6.6-1.5-8.8-1.2 4.1-2.6 4.9-6.2 4.9-.2-3.6.6-6.5 1.8-9.8-3.4-.4-5.7 1-7.3 3.9-.6-1.6-1.3-3-2-4.4l4.4-7.6c-13.8-17.5-7-32.5.7-39 7.4-6.1 21.7-8.8 43.2.1m65.3 0c7.7 6.4 14.5 21.5.7 39l4.4 7.6c-.7 1.4-1.4 2.8-2 4.4-1.5-2.9-3.9-4.3-7.3-3.9 1.2 3.3 2 6.2 1.8 9.8-3.6-.1-5-.8-6.2-4.9-2.7 2.2-2.5 6.6-1.5 8.8-1.2.4-2.1 1.1-3.1 1.6-.9.4-1.7 1.1-2.5 1.2-1.4-.1-2.7-.3-4.2.1l2.3 3.6c1.7 2.5 3.9 3.2 5.9 3.5-1.5 1.9-1.5 4.2-1.9 7.3 4-3 4.6-2.1 8.8-1.5 1.6.2 3.5.4 5.2.4-.4 3-1.7 5.2-3 6.8-2.1 2.6-4.8 4-7.2 4-1.6 0-3.7-.5-5.7-1.7s-3.1-2.3-5.1-4.9c.9-.3 1.8-.9 2.4-1.6 1.1-1.2 1.7-2.8 1.7-4.6s-.7-3.4-1.7-4.5c-1.1-1.2-2.7-2-4.5-2s-3.3.8-4.5 2c-1.1 1.2-1.7 2.8-1.7 4.5 0 1.5.5 2.9 1.4 4.1-3 4-7.6 7.2-10.9 7.1-5.7-.2-12.8-8-11-15.8 4 1.4 8 0 11.9 1.6 1.7.7 2.4 3.5 5.2 4.2.2-2.6-.1-5.1-1.1-7.4 5.1-.6 6.6-3.1 7.6-6.5-4.1-.9-3.7-2.1-7.2-4.3.3-.3.5-.7.8-1.1 2.2-3.3 2.4-4.9 2.3-8.8-3.4 1.5-5.7 1.3-10.2 1.2 0-2-2.9-4.8.8-6.2-2.2-1.1-3.9-1.4-5.2-1.3l5.7-9.4.9-1.4-1.1-1.3c-3.1-3.8-3-9.5-2.9-15.4v-1c.1-5.5-.1-9.2-1.2-13.2 21.5-9 35.8-6.3 43.1-.1m5.4 64c1.9 0 3.4 1.6 3.4 3.6s-1.5 3.6-3.4 3.6-3.4-1.6-3.4-3.6c-.1-2 1.5-3.6 3.4-3.6M500 209.4c-1.8 0-3.2-1.4-3.2-3.2 0-1.7 1.4-3.2 3.2-3.2 1.7 0 3.2 1.4 3.2 3.2s-1.5 3.2-3.2 3.2m0 15.1c1.7 0 3.2 1.4 3.2 3.2 0 1.7-1.4 3.2-3.2 3.2s-3.2-1.4-3.2-3.2 1.4-3.2 3.2-3.2m0 33.1c1.9 0 3.4 1.6 3.4 3.6s-1.5 3.6-3.4 3.6-3.4-1.6-3.4-3.6 1.5-3.6 3.4-3.6m-56.1 11.1c0 2-1.5 3.6-3.4 3.6s-3.4-1.6-3.4-3.6 1.5-3.6 3.4-3.6c1.8 0 3.4 1.6 3.4 3.6m20.4 25q3.15-1.65 6-4.5c1.7 1.5 3.6 2.7 5.3 3.6q1.95 1.05 3.9 1.5c-1.2 0-2.4.1-3.6.2-5.6.3-11.1.7-16.6 1.2 1.7-.4 3.3-1.1 5-2m29.3-2.4c2.3-1.5 4.5-3.6 6.4-6 1.9 2.4 4.2 4.5 6.4 6 1.8 1.3 3.6 2.2 5.5 2.8-4-.1-7.9-.1-11.9-.1-3.9 0-7.9 0-11.9.1 1.8-.7 3.6-1.6 5.5-2.8m30.8 1.5c1.7-.9 3.6-2.1 5.3-3.6q2.85 2.85 6 4.5c1.7.9 3.3 1.5 4.9 1.9-5.5-.5-11.1-.9-16.6-1.2-1.2-.1-2.4-.1-3.6-.2 1.4-.2 2.7-.7 4-1.4m-102.6 5.3c2.3 1 4.3 1.6 6.2 1.9-3.4.6-6.8 1.3-10.1 2.1 1.3-1.1 2.8-2.5 3.9-4m20.9-6.7c1.2 1.2 2.1 2.2 3.4 3 2.1 1.3 4.9 1.8 7.5 1.9-.3 0-.5.1-.8.1-5.9.6-11.6 1.4-17.3 2.3 2.8-1.4 5.1-3.9 7.2-7.3m111.2 3c1.3-.8 2.2-1.8 3.4-3 2.1 3.4 4.5 5.9 7.3 7.3-5.7-.9-11.5-1.7-17.3-2.3-.3 0-.5-.1-.8-.1 2.4-.2 5.3-.7 7.4-1.9m24.3 3.7c1.1 1.5 2.6 2.9 3.9 3.9-3.3-.7-6.7-1.4-10.1-2.1 1.9-.2 3.9-.8 6.2-1.8m-150.9-82.2c-1.2 11.4 2.3 20.4 8.7 29.7-1.4 2.7-2.5 5.4-2.8 8.5-3.5-2-6-1.4-9 .3 3.6 2.3 5.9 3.9 6.5 8.3-2.5-.2-5-.5-7.5-.7.3 1.7 1 3.4 2.2 5-2.9 2.4-3.7 5.4-8.4 6.7 3 2.1 4.8 3.7 9.9 3.3-1.3 2.9-1.5 6.2.4 9 1.6-4.4 2.6-5.2 6.2-5.2 1.6 0 4.3.1 4.7-1.1 0 .4.1.8.1 1.2 0 3-.7 5.9-2.1 7.9-1.3 1.9-3.7 4.1-6.1 4.1-2.6 0-5.4-1.8-7.7-3.4.7-1 1-2.3 1-3.6 0-1.8-.7-3.4-1.7-4.5-1.1-1.2-2.7-2-4.5-2s-3.3.8-4.5 2c-1.1 1.2-1.7 2.8-1.7 4.5 0 1.8.7 3.4 1.7 4.6.8.9 1.9 1.6 3.1 1.8-1.1 1.9-2.6 4.1-4.8 4.1-2.6 0-5.5-1.5-8.4-3.9-1.1-.9-1.9-2.1-2.8-3.3 5.6 1 10.1-2.2 9.6-5.2-2.2.2-2.5 1-4.6.1 2.1-1.7 4.4-3.5 6-5.3l2.2-2.1c-2.3-1.3-5.2-2.7-7.7-3.6 1-2.6 1-5.1-1.2-5.9-.6 1.9-1.3 4.3-3.7 4.2-1.7-.1-3.9 0-5.4 1.1-.7.5-1.3 1.1-1.9 1.8-2.3-5.6-3.9-7.5-7.6-9.9-.7 1.2-1.2 2.6-1.6 4.2-.7-.6-1.6-1.2-2.6-1.6l3.4-13.7c-11-15.3-4.2-29.3 3.5-35.6 7.2-5.9 21-9.3 39.1-1.8M391 290.1c-1.2.6-2.7-.1-3.5-1.6-.7-1.5-.4-3.2.8-3.8s2.7.1 3.5 1.6c.7 1.6.4 3.3-.8 3.8m24.1 27.3 3.4-3.7 5.7 1-3.6 4.3zm164.2 1.6-3.6-4.3 5.7-1 3.4 3.7zm33.2-30.5c-.7 1.5-2.3 2.2-3.5 1.6s-1.5-2.3-.8-3.8 2.3-2.2 3.5-1.6 1.5 2.3.8 3.8" class="st0" style="display:inline;fill:#22558c"/><g id="g27"><path id="path8" d="M375.4 709.1c-2.5-3.3-11.1-9.6-19.7-2.8-8.7 6.8-6.1 15.8-3.1 20s12.8 10 20.9 2.2c8-7.7 4.4-16.1 1.9-19.4m-6.2 13.3c-6.1 5.5-12.2 7-15.2 2.8s1-9.2 6.8-13.5 10.2-4.8 12.8-1.7c2.5 3.1 1.7 6.9-4.4 12.4" class="st1" style="display:inline;fill:#fed32c"/><path id="path9" d="m431.8 762.1 3.7-6.6-22.5-12.4-3.7 6.6 1.8 1c1.9-1.7 4.5-4.1 6.8-2.8l2.6 1.5-10.5 19.1c-.6 1-1.4.9-4.1-.6l-1 1.8 12.7 7 1-1.8c-2.9-1.6-3.2-2.2-2.5-3.5l10.4-18.8 2.7 1.5c2.2 1.2 1.8 4.3 1.2 7.2z" class="st1" style="display:inline;fill:#fed32c"/><path id="path10" d="M555.9 777.6c-.5 4.8-1.1 7.3-4.9 8.3l-4.1 1.1c-.8.2-1.8-.2-2.1-1.3l-4.9-18.6c-.5-1.8.6-2.6 3.4-3.3l-.5-1.7-14.1 3.7.5 1.7c2.7-.7 3.8-.5 4.2.9l5 18.9c.6 2.1-1.2 2.4-3.2 2.9l.5 1.9 23.5-6.2-2-8.6z" class="st1" style="display:inline;fill:#fed32c"/><path id="path11" d="M625 735.4c1.6 4.5 2.3 7-.8 9.7l-3.2 2.8c-.6.5-1.7.7-2.5-.3L605.9 733c-1.2-1.4-.5-2.6 1.6-4.4l-1.2-1.3-11 9.5 1.2 1.3c2.1-1.8 3.2-2.1 4.1-1l12.8 14.8c1.4 1.7 0 2.6-1.6 4l1.3 1.5 18.4-15.9-5.6-6.8z" class="st1" style="display:inline;fill:#fed32c"/><path id="path12" d="M647.7 709.7 637 701c-1.6-1.3-1.3-2.9.7-5.4l-1.5-1.2-7.2 8.9 1.5 1.2c1.8-2.2 3.5-2.5 4.5-1.7l11.1 9.1c3.2 2.6 3.5 6.4 1 9.5-2.1 2.5-5.6 3.7-9.3.7l-11.5-9.3c-1.1-.9-1.1-1.8.7-4l-1.5-1.3-8.7 10.7 1.5 1.2c1.8-2.2 2.9-2 4.1-1l10.9 8.9c5.9 4.8 11.2 1 15.4-3.9 2.4-2.7 4.4-9.3-1-13.7" class="st1" style="display:inline;fill:#fed32c"/><path id="path13" d="m490.2 789.8-6.1-22.5-4.1-.5-11.5 21.5c-.9 1.7-1.8 2.2-4.7 1.8l-.2 2 10.8 1.2.2-2c-4-.5-4.7-1.1-4-2.5l2.5-4.7 9.1 1 1.4 4.9c.9 2.9-1.3 2.2-3.5 2l-.2 2 14.4 1.6.2-2c-3.1-.3-3.8-1.9-4.3-3.8m-16-7.5 4.7-8.8 2.8 9.6z" class="st1" style="display:inline;fill:#fed32c"/><path id="path14" d="M600 757.2c0 5.5-1.9 7.9-4.7 9.4-4.6 2.4-9.4-1.1-13-7.4s-2.3-11.5.3-13c2.4-1.4 6.6-2.3 11.8 3.4l1.4-.9-5.5-8.3-1.5 1.1.7 1.2c-4.1-.1-6.4.7-7.9 1.6-1.3.7-3.3 2.1-4.6 4.2-2.1 3.4-4 9.8-.6 15.2 3.4 5.6 7.9 7.7 12.2 7.7 5 0 8.1-2.1 10.9-5.2 2.2-2.4 2.3-5.9 2-9z" class="st1" style="display:inline;fill:#fed32c"/><path id="path15" d="M525 785c-1.4 4.6-2.4 7-6.4 7.3l-4.3.3c-.8.1-1.7-.5-1.8-1.7l-1.4-19.2c-.1-1.9 1.1-2.4 3.9-2.6l-.1-1.8-14.5 1 .1 1.8c2.8-.2 3.8.2 3.9 1.6l1.4 19.5c.2 2.2-1.6 2.1-3.7 2.2l.1 1.9 24.3-1.7-.4-8.8z" class="st1" style="display:inline;fill:#fed32c"/><path id="path16" d="M399.4 732c-3.1-2.8-12.7-7.4-19.9 1-7.2 8.3-3 16.7.7 20.3s14.5 7.4 20.9-1.7c6.5-9.2 1.3-16.8-1.7-19.6m-3.6 14.3c-5 6.5-10.7 9.1-14.4 5.6-3.7-3.6-.8-9.2 4.1-14.5s9.1-6.6 12.2-4.1c3.1 2.6 3.1 6.5-1.9 13" class="st1" style="display:inline;fill:#fed32c"/><path id="path17" d="m454.2 761.7-14.6-4.8-.6 1.8c2.7.9 3.3 1.7 2.8 3.2l-6 18.2c-.4 1.3-1.4 1.6-4.1.7l-.6 1.8 14.6 4.8c5.5 1.8 11.1 0 12.2-4 1.4-4.7-1.1-6.9-5.2-9.3 4.7-.1 7.5-1.8 8-4.1.8-3.7-.4-6.2-6.5-8.3m-3.1 18.5c-.7 3-3.3 5.9-6.8 4.7l-2.7-.9 3.6-11 2.1.7c3.1 1 4.4 3.9 3.8 6.5m2.5-12.4c-.7 2.7-4 4.7-5.9 4l-1.9-.6 3.1-9.3 1.6.5c1.9.7 3.7 3 3.1 5.4" class="st1" style="display:inline;fill:#fed32c"/><path id="path18" d="M352.9 692.5c-2.6 1.5-4.2 1.6-5.6-.8l-1.6-2.8 9.1-5.3 3.4 5.8c1.4 1.9-.3 4.4-2.2 6.5l1.1 2 6.3-3.6-11.9-20.6-1.8 1.1c1.9 3.2 1.4 3.5-.1 4.4l-16.9 9.8c-1.3.7-1.8-.2-3.1-2.5l-1.8 1.1 7 12.1 1.8-1.1c-1.1-1.9-1.4-3.4-.3-4.1l8.2-4.8 1.6 2.8c1.3 2.2.3 3.9-2.4 5.4l.9 1.6 9.4-5.4z" class="st1" style="display:inline;fill:#fed32c"/><path id="path19" d="M667.7 677.8c-4.3-2.2-7-.2-10.1 3.4.8-4.6-.4-7.7-2.6-8.6-3.4-1.5-6.1-.8-9.3 4.9l-7.4 13.4 1.6.9c1.4-2.5 2.3-2.9 3.7-2.2l16.8 9.3c1.2.7 1.3 1.6-.1 4.2l1.6.9 7.5-13.4c2.7-5.1 2-11-1.7-12.8m-13.2 7.9-1 1.8-8.6-4.8.8-1.5c1-1.8 3.6-3.1 5.9-2.1 2.5 1.1 3.8 4.8 2.9 6.6m12.1 5.7-1.4 2.5-10.1-5.6 1.1-1.9c1.6-2.9 4.6-3.7 7.1-2.6 2.8 1.3 5.1 4.4 3.3 7.6" class="st1" style="display:inline;fill:#fed32c"/></g><g id="g26"><path id="path20" d="m441 400.4 5 23c.7 3.3.7 7-5.7 8.4l.6 2.7 18.2-3.9-.6-2.7c-5.5 1.2-8-1.6-8.8-5.4l-4.9-22.7 33.4 26.5 5.4-1.2-7.4-34c-.8-3.5.2-6.2 5.7-7.4l-.6-2.7-17.8 3.9.6 2.7c5.4-1.2 7.7 1.5 8.3 3.9l4.4 20.1-29.2-23.2-15.9 3.4.6 2.7c5.8-1.2 8 2.9 8.7 5.9" class="st1" style="display:inline;fill:#fed32c"/><path id="path21" d="M508.2 422.4c-6.5-.7-7.8-1.6-6.5-4.1l4-7.7 14.9 1.5 2.4 7.9c1.5 4.8-2 3.6-5.7 3.3l-.3 3.2 23.7 2.4.3-3.2c-5.2-.5-6.4-3.2-7.2-6.2l-10.4-36.9-6.7-.7-18.4 35.5c-1.5 2.9-2.9 3.6-7.7 3.1l-.3 3.2 17.8 1.8zm6.6-29.4 4.8 15.7-12.3-1.2z" class="st1" style="display:inline;fill:#fed32c"/><path id="path22" d="m587.9 432.9-9 12.5 3 2.1 1.2-1.6c4.4 7.4 10.1 13.3 17.5 15.3 8.1 2.1 15.4-2.4 17-8.5 1.6-6.2-2.2-10.8-5.1-15.3-2-3-6.4-7.5-5.2-11.9.8-2.9 5.2-4.8 8.1-4 4.9 1.3 9.2 7.9 5.2 19.6l2.1 1.6 8.8-12.2-3-2.1-1.3 1.8c-2.4-5.8-8.5-12-14.6-13.6-8.4-2.2-15.1 2.3-16.6 8.1-2 7.5 2.8 12.2 6.7 17.8 1.9 2.7 4.2 6 3.3 9.4-.8 3-4.5 5.3-8.1 4.3-7.4-2-11-10.6-7.7-21.6z" class="st1" style="display:inline;fill:#fed32c"/><path id="path23" d="m357.2 503.8 2.5 2 11.1-14-2.6-2c-4.1 5.1-5.6 5.7-7 3.3l-4.3-7.5 9.3-11.8 8 2.2c4.8 1.4 2 3.7-.3 6.6l2.6 2 14.8-18.6-2.6-2c-3.3 4.1-6.1 3.7-9.2 2.7l-36.7-11.1-4.2 5.3 20 34.7c1.7 2.8 1.6 4.4-1.4 8.2m-10.1-35.4 15.8 4.4-7.7 9.7z" class="st1" style="display:inline;fill:#fed32c"/><path id="path24" d="M580.5 427c0-6.4-4.8-9.9-8.8-13.5-2.7-2.4-8.1-5.7-8-10.2 0-3 3.9-5.9 6.9-5.9 5.1 0 10.8 5.3 10 17.6l2.5 1 5.4-14-3.4-1.3-.8 2.1c-3.8-5-11.2-9.5-17.5-9.5-8.6 0-14 6-14.1 12-.1 7.7 5.7 11.1 10.9 15.6 2.5 2.2 5.6 4.8 5.5 8.3-.1 3.1-3 6.2-6.8 6.2-7.7 0-13.3-7.5-12.9-19l-2.5-1-5.6 14.3 3.4 1.3.7-1.9c6.1 6.1 13.1 10.3 20.8 10.4 8.4 0 14.3-6.2 14.3-12.5" class="st1" style="display:inline;fill:#fed32c"/><path id="path25" d="M645.1 452.5 618.9 472c-1.8 1.1-2.5.3-5.5-3.9l-2 1.5 14 18.8 2-1.5c-2.3-3.1-3.4-5-1.5-6.3l11.8-8.7.5.7c.5.6.5 1.6.2 2.3l-6.7 21.9 9.7 13.1 2-1.5c-2.3-4-1.9-4.7-1.3-7.4l5.1-19.5c6.4 4.7 13.2 4 17 0 3.2-3.4 3.6-9.3-1.2-15.8l-16.5-22.1-2.6 1.9c2.6 3.6 3.5 5.3 1.2 7m12.3 11.3c2.3 3.1.8 6.8-2.2 9.4-3.6 3.2-9.6 4.5-12 1.2L640 470l14.2-10.6Z" class="st1" style="display:inline;fill:#fed32c"/><path id="path26" d="m375.3 431.7 18.5 25.5c2.1 2.9-.4 4.2-3.2 6.3l1.8 2.5 32.5-23.6-8-11.7-1.6 1.3c1.9 7.5 2.6 11.7-2.8 15.6l-5.7 4.2c-1.1.8-2.8.8-4-.8l-18.2-25.1c-1.8-2.5-.5-4.3 3.3-7l-1.7-2.3-19.5 14.1 1.7 2.3c3.7-2.8 5.5-3.1 6.9-1.3" class="st1" style="display:inline;fill:#fed32c"/></g></g></svg>